<svg fill="none" xmlns="http://www.w3.org/2000/svg" viewBox="0 0 50 50">
  <path d="m18.712 48.362.004-46.97 30.07 10.188v16.256l-.002 14.796-30.072 5.73Z" stroke="#232323" stroke-width="2"/>
  <path d="M8.085 38.854a7.726 7.726 0 0 1-1.881-.231 9.12 9.12 0 0 1-1.65-.594 8.765 8.765 0 0 1-1.353-.792 8.164 8.164 0 0 1-.99-.825 15.684 15.684 0 0 1-.627-.66c-.154-.198-.231-.385-.231-.561 0-.198.066-.396.198-.594.132-.22.275-.407.429-.561.242-.242.44-.396.594-.462.176-.088.341-.132.495-.132.308 0 .55.099.726.297.198.198.484.473.858.825.22.154.506.341.858.561.352.22.759.418 1.221.594.462.154.957.231 1.485.231.726 0 1.353-.132 1.881-.396a3.34 3.34 0 0 0 1.287-1.122 5.168 5.168 0 0 0 .792-1.683c.176-.66.264-1.364.264-2.112V17.47c0-.352.033-.66.099-.924a.923.923 0 0 1 .429-.594c.242-.154.583-.231 1.023-.231.418 0 .726.066.924.198a.82.82 0 0 1 .396.528c.066.22.099.484.099.792v13.662c0 1.166-.165 2.233-.495 3.201-.308.968-.77 1.804-1.386 2.508-.616.704-1.386 1.254-2.31 1.65-.902.396-1.947.594-3.135.594ZM27.847 34.71c-1.248 0-2.368-.2-3.36-.6a7.557 7.557 0 0 1-2.568-1.752c-.704-.767-1.248-1.687-1.632-2.76-.384-1.072-.576-2.264-.576-3.575 0-1.248.192-2.377.576-3.384a7.388 7.388 0 0 1 1.704-2.592 7.765 7.765 0 0 1 2.64-1.68c1.024-.416 2.176-.633 3.456-.649.496 0 1 .049 1.512.145a9.125 9.125 0 0 1 1.512.407c.48.177.912.384 1.296.625.272.175.504.36.696.552.192.175.296.36.312.552a.77.77 0 0 1-.048.36c-.048.143-.112.28-.192.407a1.387 1.387 0 0 1-.432.433.883.883 0 0 1-.432.12c-.064 0-.176-.04-.336-.12-.16-.08-.36-.2-.6-.36a6.756 6.756 0 0 0-.96-.456 6.059 6.059 0 0 0-1.152-.336 6.85 6.85 0 0 0-1.296-.12c-1.232 0-2.304.247-3.216.744a5.129 5.129 0 0 0-2.112 2.136c-.48.928-.728 2.024-.744 3.288.016 1.312.272 2.448.768 3.408s1.192 1.703 2.088 2.232c.912.528 1.976.791 3.192.791.4 0 .808-.032 1.224-.096a10.4 10.4 0 0 0 1.224-.264c.416-.127.8-.28 1.152-.455v-4.633h-4.2c-.208 0-.392-.023-.552-.072a.591.591 0 0 1-.336-.288c-.064-.143-.096-.36-.096-.648 0-.288.04-.503.12-.648a.591.591 0 0 1 .336-.288c.144-.047.32-.072.528-.072h5.208c.32 0 .56.056.72.168a.89.89 0 0 1 .336.433c.08.16.12.36.12.6v5.903c0 .257-.144.529-.432.817-.272.272-.664.528-1.176.768-.368.192-.784.36-1.248.504a9.49 9.49 0 0 1-1.44.335c-.512.08-1.04.12-1.584.12Zm14.117.096a5.742 5.742 0 0 1-2.256-.456 6.5 6.5 0 0 1-1.896-1.248c-.56-.543-1-1.175-1.32-1.895a5.725 5.725 0 0 1-.48-2.352c0-.832.151-1.6.456-2.305a5.974 5.974 0 0 1 3.144-3.168c.72-.32 1.488-.48 2.304-.48 1.104 0 2.096.264 2.976.793a5.755 5.755 0 0 1 2.136 2.111c.528.896.791 1.904.791 3.024 0 .88-.16 1.689-.48 2.425a5.943 5.943 0 0 1-1.295 1.872 6.184 6.184 0 0 1-1.872 1.247 5.776 5.776 0 0 1-2.208.432Zm-.048-2.087c.672 0 1.296-.169 1.872-.505a3.87 3.87 0 0 0 1.92-3.407c0-.752-.169-1.416-.505-1.992a3.394 3.394 0 0 0-1.344-1.345c-.576-.32-1.232-.48-1.968-.48a3.74 3.74 0 0 0-1.92.505 3.997 3.997 0 0 0-1.367 1.367c-.337.577-.505 1.233-.505 1.969 0 .768.177 1.448.529 2.04a3.93 3.93 0 0 0 1.392 1.368c.591.32 1.223.48 1.895.48Z" fill="#232323"/>
</svg>
