<?xml version="1.0" standalone="no"?>
<!DOCTYPE svg PUBLIC "-//W3C//DTD SVG 20010904//EN"
 "http://www.w3.org/TR/2001/REC-SVG-20010904/DTD/svg10.dtd">
<svg version="1.0" xmlns="http://www.w3.org/2000/svg"
 width="700.000000pt" height="700.000000pt" viewBox="0 0 700.000000 700.000000"
 preserveAspectRatio="xMidYMid meet">
<metadata>
Created by potrace 1.14, written by Peter Selinger 2001-2017
</metadata>
<g transform="translate(0.000000,700.000000) scale(0.100000,-0.100000)"
fill="#000000" stroke="none">
<path d="M2480 3529 l0 -3469 28 5 c15 3 38 7 52 10 14 3 48 9 75 14 214 41
324 62 345 66 14 2 50 9 80 15 30 6 66 13 80 16 14 2 48 9 75 14 28 5 61 12
75 14 130 24 248 47 260 51 8 2 31 6 50 9 19 3 82 14 140 26 58 11 121 23 140
26 19 3 51 9 70 14 19 5 55 12 80 15 24 4 47 8 50 10 3 1 27 6 54 9 27 4 52 9
55 11 3 1 22 6 41 9 68 11 95 16 140 26 25 5 119 23 210 40 91 17 185 35 210
40 25 5 61 12 80 15 19 3 91 17 160 30 150 29 423 82 465 89 17 3 55 10 85 16
30 6 66 13 80 16 14 3 61 12 105 20 44 8 103 19 130 24 66 12 96 18 180 35 39
8 84 16 100 19 17 3 89 17 160 30 72 14 166 32 210 40 114 22 118 23 240 46
61 12 127 24 148 27 l37 6 0 2282 0 2283 -27 10 c-16 6 -154 54 -308 106 -386
130 -1221 413 -1810 613 -137 46 -403 136 -590 199 -390 132 -351 119 -765
258 -173 59 -324 111 -335 115 -11 5 -29 12 -40 14 -11 3 -141 46 -290 97
-148 51 -282 96 -297 100 l-28 9 0 -3470z m340 3061 c30 -10 490 -166 1210
-410 294 -100 560 -190 590 -200 30 -10 269 -91 530 -180 261 -88 554 -187
650 -220 96 -32 335 -113 530 -179 195 -67 356 -121 357 -121 2 0 3 -494 2
-1097 -1 -990 -2 -1091 -15 -1030 -37 171 -132 328 -266 441 -61 51 -79 64
-160 109 -151 84 -388 113 -566 68 -389 -97 -650 -439 -637 -834 4 -137 34
-256 90 -362 77 -147 228 -289 386 -365 363 -173 783 -64 1020 265 65 89 123
228 142 335 2 14 5 -354 6 -817 1 -793 0 -842 -16 -847 -18 -6 -87 -20 -178
-36 -55 -10 -54 -10 -235 -45 -69 -13 -141 -27 -160 -30 -19 -3 -150 -28 -290
-55 -140 -27 -268 -52 -285 -54 -16 -3 -41 -8 -55 -11 -20 -4 -326 -62 -420
-80 -14 -3 -34 -7 -45 -9 -11 -2 -58 -11 -105 -20 -47 -9 -96 -18 -110 -21
-27 -5 -499 -94 -540 -102 -14 -2 -104 -20 -200 -39 -96 -19 -191 -37 -210
-40 -19 -3 -42 -7 -50 -9 -8 -2 -30 -7 -47 -10 -18 -3 -77 -14 -130 -24 -54
-11 -125 -24 -158 -30 -33 -6 -71 -13 -85 -16 -54 -11 -321 -62 -365 -70 -16
-2 -41 -7 -55 -10 -31 -7 -114 -23 -157 -30 l-33 -5 1 1407 c1 1177 3 1395 14
1328 7 -44 15 -98 19 -119 11 -67 63 -211 110 -303 140 -279 381 -466 694
-539 121 -29 362 -40 487 -23 279 39 560 173 625 298 17 32 17 893 1 944 -6
18 -25 47 -42 63 l-30 29 -422 3 c-442 3 -481 0 -506 -39 -19 -32 -26 -129
-11 -174 21 -63 35 -65 397 -65 l319 0 -1 -326 0 -326 -75 -30 c-86 -34 -72
-30 -210 -58 -107 -21 -258 -28 -355 -15 -433 56 -708 403 -707 890 0 270 77
479 232 636 51 52 145 118 205 144 22 9 48 21 57 26 57 29 225 56 356 57 186
0 321 -40 539 -162 54 -30 67 -34 95 -26 69 19 138 131 122 197 -21 81 -207
196 -413 254 -178 50 -427 60 -591 23 -14 -3 -35 -8 -48 -10 -45 -9 -177 -56
-251 -90 -327 -151 -551 -466 -600 -845 -5 -36 -9 617 -10 1500 -1 1485 0
1563 17 1556 9 -4 28 -11 42 -15z m3201 -3110 c220 -57 364 -244 374 -485 7
-168 -42 -302 -154 -414 -103 -103 -219 -155 -362 -160 -253 -9 -485 176 -533
425 -56 296 105 563 384 638 72 20 208 18 291 -4z"/>
<path d="M1867 4786 c-62 -17 -96 -51 -112 -113 -10 -36 -13 -285 -13 -1048 0
-550 -4 -1022 -7 -1050 -42 -332 -206 -547 -453 -595 -60 -12 -231 -9 -295 4
-99 22 -302 144 -407 246 -36 34 -80 69 -98 77 -77 32 -174 -18 -252 -131 -67
-98 -54 -141 82 -271 143 -138 281 -222 464 -283 88 -30 106 -34 214 -51 58
-10 290 -6 349 4 336 62 589 260 714 558 41 99 83 259 95 366 5 41 8 547 8
1125 -1 1030 -1 1052 -21 1091 -11 22 -35 48 -52 58 -41 24 -152 30 -216 13z"/>
</g>
</svg>
